<svg xmlns="http://www.w3.org/2000/svg" viewBox="0 0 536.85 371.38"><g id="Layer_2" data-name="Layer 2"><g id="Layer_1-2" data-name="Layer 1"><path d="M.5,173.73V.5H53.66q25.16,0,39.87,12t14.71,32.63q0,11.64-5.22,20.17A36.25,36.25,0,0,1,88.9,78.57a42.88,42.88,0,0,1-20.53,4.75v-.95A48.11,48.11,0,0,1,90.81,87a37.76,37.76,0,0,1,15.66,14.36q5.81,9.5,5.81,23,0,15-6.88,26.11a45.44,45.44,0,0,1-19.35,17.2q-12.45,6.06-29.78,6Zm29-101.8h24q11.61,0,18.38-6.29t6.77-17.21c0-7.28-2.26-13-6.77-17.09s-10.72-6.17-18.63-6.17H29.46Zm0,77.12H54.37q13.05,0,20.53-7T82.38,123q0-12.11-7.48-19.58T54.37,95.89H29.46Z" style="fill:none;stroke:#faff00;stroke-miterlimit:10"/><path d="M142.65,173.73V.5h54.82q17.33,0,30,6.4a48.49,48.49,0,0,1,19.82,17.92q7.11,11.51,7.11,27.18,0,17.07-8.66,30.13a47,47,0,0,1-23.38,18.52l34.42,73.08H223.57l-30.14-68.82H172.31v68.82Zm29.66-94.92h25.16q12.57,0,19.7-6.88t7.11-19q0-12.33-7.11-19.34t-19.7-7H172.31Z" style="fill:none;stroke:#faff00;stroke-miterlimit:10"/><path d="M275.31,173.73,319,.5h38.21l43.9,173.23H370.71l-9.49-42h-46l-9.49,42Zm45.33-66.21h35.12L345.32,61q-2.61-11.62-4.51-21T338.2,26.36q-.7,4.28-2.49,13.64t-4.63,20.77Z" style="fill:none;stroke:#faff00;stroke-miterlimit:10"/><path d="M427.18,173.73V.5h51.5q17.55,0,30.49,6.64a48.4,48.4,0,0,1,20.06,18.75Q536.34,38,536.35,54.6v64.79q0,16.38-7.12,28.6a48.8,48.8,0,0,1-20.06,19q-12.93,6.76-30.49,6.76Zm29.67-27.28h21.83q12.82,0,20.41-7.25t7.59-19.81V54.6q0-12.33-7.59-19.58t-20.41-7.23H456.85Z" style="fill:none;stroke:#faff00;stroke-miterlimit:10"/><path d="M6.67,368.51V195.27H36.33V341h73.58v27.53Z" style="fill:none;stroke:#faff00;stroke-miterlimit:10"/><path d="M195.81,370.88q-16.62,0-28.84-6.29a44.24,44.24,0,0,1-18.75-17.8q-6.53-11.51-6.53-27.17V244.15q0-15.65,6.53-27.17A44.42,44.42,0,0,1,167,199.18q12.21-6.28,28.84-6.28,16.84,0,28.95,6.28A44.5,44.5,0,0,1,243.38,217q6.54,11.52,6.53,26.94v75.7q0,15.67-6.53,27.17a44.32,44.32,0,0,1-18.62,17.8Q212.66,370.88,195.81,370.88Zm0-26.11q12.09,0,18.27-6.52t6.17-18.63V244.15q0-12.33-6.17-18.74T195.81,219q-12.1,0-18.28,6.41t-6.17,18.74v75.47q0,12.11,6.29,18.63T195.81,344.77Z" style="fill:none;stroke:#faff00;stroke-miterlimit:10"/><path d="M319,368.51,275.31,195.27h30.85l26.1,113q2.14,8.31,4,17.8t2.85,15.42c.62-3.95,1.5-9.1,2.6-15.42s2.3-12.34,3.57-18l25.87-112.72h29.89L357.42,368.51Z" style="fill:none;stroke:#faff00;stroke-miterlimit:10"/><path d="M430.27,368.51V195.27H534.21v25.86H459.46v45.1h66.45v25.63H459.46v50.78h74.75v25.87Z" style="fill:none;stroke:#faff00;stroke-miterlimit:10"/></g></g></svg>