<svg xmlns="http://www.w3.org/2000/svg" viewBox="0 0 98.04 111.83"><g id="Layer_2" data-name="Layer 2"><g id="Layer_1-2" data-name="Layer 1"><g id="Creative_Developer" data-name="Creative Developer"><g id="Devloper"><path fill="#fff" d="M0,0H43A50.65,50.65,0,0,1,64.44,4.6,58.39,58.39,0,0,1,82,16.83a57,57,0,0,1,11.79,17.8,54.87,54.87,0,0,1,.07,42.42A56.6,56.6,0,0,1,82.09,94.92a57.7,57.7,0,0,1-17.5,12.31A51,51,0,0,1,43,111.83H0ZM29.07,87.21h6.67a36.15,36.15,0,0,0,13.5-2.37,28.83,28.83,0,0,0,10-6.53,27.94,27.94,0,0,0,6.23-9.86,35.37,35.37,0,0,0,2.15-12.53,34.55,34.55,0,0,0-2.22-12.47A28,28,0,0,0,49.09,27a35.52,35.52,0,0,0-13.35-2.38H29.07Z"/></g></g></g></g></svg>