<svg xmlns="http://www.w3.org/2000/svg" viewBox="0 0 85.58 118.06"><g id="Layer_2" data-name="Layer 2"><g id="Layer_1-2" data-name="Layer 1"><g id="Creative_Developer" data-name="Creative Developer"><g id="Creative"><path fill="#fff" d="M85.58,40.49Q75.5,28.18,60.67,28.18a30.46,30.46,0,0,0-12.09,2.37A29,29,0,0,0,32.7,46.72a31.94,31.94,0,0,0-2.29,12.16A32.31,32.31,0,0,0,32.7,71.19,29.63,29.63,0,0,0,48.65,87.5a29.43,29.43,0,0,0,11.86,2.38q14,0,25.07-11.86v34.4l-3,1A86.3,86.3,0,0,1,70.15,117a60.42,60.42,0,0,1-11.42,1.11,58.42,58.42,0,0,1-40.86-16.69,61.29,61.29,0,0,1-13-18.83A57.53,57.53,0,0,1,0,58.73,57.21,57.21,0,0,1,4.82,35.08,59.1,59.1,0,0,1,58.89,0,61.3,61.3,0,0,1,72,1.41,80.45,80.45,0,0,1,85.58,5.78Z"/></g></g></g></g></svg>