<svg xmlns="http://www.w3.org/2000/svg" viewBox="0 0 123.85 118.06"><g id="Layer_2" data-name="Layer 2"><g id="Layer_1-2" data-name="Layer 1"><g id="Creative_Developer" data-name="Creative Developer"><g id="Devloper"><path d="M0,59A57.64,57.64,0,0,1,36.86,4.52,67,67,0,0,1,61.85,0,67.21,67.21,0,0,1,86.77,4.52a58.91,58.91,0,0,1,19.65,12.54,57.38,57.38,0,0,1,12.83,18.76A58.52,58.52,0,0,1,123.85,59a58.52,58.52,0,0,1-4.6,23.21A57.38,57.38,0,0,1,106.42,101a58.91,58.91,0,0,1-19.65,12.54,67.21,67.21,0,0,1-24.92,4.52,67,67,0,0,1-25-4.52A57.86,57.86,0,0,1,0,59Zm30.41,0a29.66,29.66,0,0,0,2.52,12.31,31.05,31.05,0,0,0,6.82,9.79,30.65,30.65,0,0,0,10,6.45A32.34,32.34,0,0,0,84,81.13a30.49,30.49,0,0,0,6.9-9.79A29.82,29.82,0,0,0,93.44,59a29.82,29.82,0,0,0-2.52-12.31A30.49,30.49,0,0,0,84,36.93a32.61,32.61,0,0,0-34.26-6.45A30.76,30.76,0,0,0,32.93,46.72,29.66,29.66,0,0,0,30.41,59Z"/></g></g></g></g></svg>